<svg xmlns="http://www.w3.org/2000/svg" viewBox="0 0 24 24" width="24" height="24" fill="none">
  <path d="M12 15.5a3.5 3.5 0 1 0 0-7 3.5 3.5 0 0 0 0 7Z" stroke="currentColor" stroke-width="1.7"/>
  <path d="M19.4 13a7.9 7.9 0 0 0 0-2l2-1.2-2-3.5-2.3.6a8.3 8.3 0 0 0-1.7-1L15 3h-6l-.4 2.9a8.3 8.3 0 0 0-1.7 1l-2.3-.6-2 3.5L4.6 11a7.9 7.9 0 0 0 0 2l-2 1.2 2 3.5 2.3-.6a8.3 8.3 0 0 0 1.7 1L9 21h6l.4-2.9a8.3 8.3 0 0 0 1.7-1l2.3.6 2-3.5-2-1.2Z" stroke="currentColor" stroke-width="1.3" stroke-linejoin="round"/>
</svg>
